# xmcd
# 
# Track frame offsets:
#     150
#     18291
#     34726
#     49861
#     67913
# 
# Disc length: 1124
# 
# Revision: 1
# Processed by: cddbd v1.5.2PL0 Copyright (c) Steve Scherf et al.
# Submitted via: BonkEnc v1.0.8
# 
DISCID=36046205
DTITLE=AKB48 - 桜の栞（通常版）
DYEAR=2010
DGENRE=JPop
TTITLE0=桜の栞
TTITLE1=マジスカロックンロール
TTITLE2=遠距離ポスター（歌：チームPB）
TTITLE3=桜の栞　off vocal version
TTITLE4=マジスカロックンロール　off vocal version
EXTD=
EXTT0=
EXTT1=
EXTT2=
EXTT3=
EXTT4=
PLAYORDER=
